#tb 0: 1/25
#media_type 0: video
#codec_id 0: rawvideo
#dimensions 0: 720x576
#sar 0: 0/1
0,          0,          0,        1,   622080, 0x004bb93f
0,          1,          1,        1,   622080, 0xe70e193c
0,          2,          2,        1,   622080, 0xd394cf17
0,          3,          3,        1,   622080, 0x9e4cc924
